<?xml version="1.0" encoding="UTF-8" standalone="no"?>
<!-- Created with Inkscape (http://www.inkscape.org/) -->

<svg
   xmlns:dc="http://purl.org/dc/elements/1.1/"
   xmlns:cc="http://creativecommons.org/ns#"
   xmlns:rdf="http://www.w3.org/1999/02/22-rdf-syntax-ns#"
   xmlns:svg="http://www.w3.org/2000/svg"
   xmlns="http://www.w3.org/2000/svg"
   xmlns:sodipodi="http://sodipodi.sourceforge.net/DTD/sodipodi-0.dtd"
   xmlns:inkscape="http://www.inkscape.org/namespaces/inkscape"
   id="svg3406"
   version="1.1"
   inkscape:version="0.91 r13725"
   width="300"
   height="300"
   viewBox="0 0 300 300"
   sodipodi:docname="logo.svg"
   inkscape:export-filename="/home/christoph/Projekte/picavista/picavista/logo/logo-128.png"
   inkscape:export-xdpi="38.400002"
   inkscape:export-ydpi="38.400002">
  <metadata
     id="metadata3412">
    <rdf:RDF>
      <cc:Work
         rdf:about="">
        <dc:format>image/svg+xml</dc:format>
        <dc:type
           rdf:resource="http://purl.org/dc/dcmitype/StillImage" />
        <dc:title></dc:title>
      </cc:Work>
    </rdf:RDF>
  </metadata>
  <defs
     id="defs3410" />
  <sodipodi:namedview
     pagecolor="#ffffff"
     bordercolor="#666666"
     borderopacity="1"
     objecttolerance="10"
     gridtolerance="10"
     guidetolerance="10"
     inkscape:pageopacity="0"
     inkscape:pageshadow="2"
     inkscape:window-width="1920"
     inkscape:window-height="1009"
     id="namedview3408"
     showgrid="false"
     inkscape:zoom="1.878547"
     inkscape:cx="-48.311018"
     inkscape:cy="147.12807"
     inkscape:window-x="0"
     inkscape:window-y="34"
     inkscape:window-maximized="1"
     inkscape:current-layer="layer5"
     showguides="true"
     inkscape:snap-bbox="false"
     inkscape:snap-nodes="true"
     inkscape:snap-others="false"
     inkscape:object-paths="true"
     inkscape:object-nodes="true"
     inkscape:snap-intersection-paths="true"
     inkscape:snap-smooth-nodes="true"
     inkscape:snap-page="false" />
  <g
     inkscape:groupmode="layer"
     id="layer3"
     inkscape:label="Basis"
     style="display:inline"
     transform="translate(0,21)">
    <path
       sodipodi:nodetypes="csscsscscscscscscsccccccsccccccccsccccccccscsscscscscscscscsscsccscscsc"
       inkscape:connector-curvature="0"
       d="m 214.76318,104.04325 c -14.03165,-4.87395 -30.30508,10.05421 -35.49892,9.33992 -2.08701,-0.28701 -10.24846,-18.058866 -13.33037,-27.880781 -1.61874,-5.158863 2.59536,-11.930023 -1.99487,-20.492607 -2.64693,-4.873748 -3.11416,-12.633125 -2.60256,-22.095743 0.92432,-17.096581 2.74694,-36.8972648 -0.75906,-37.5252893 -1.90634,-0.3414765 -4.6301,21.9999603 -5.52255,35.9949403 -3.33353,-3.983887 -4.87984,-52.436175 -8.92958,-52.037971 -4.60355,0.452662 -4.20902,32.43895 -2.71678,40.275573 -2.18155,0.896657 -12.38901,-41.509776 -14.55016,-40.982589 -7.1815,1.7518321 1.32222,34.866163 2.08036,39.51243 -1.28373,0.758595 -18.17166,-33.354472 -20.83146,-31.7464953 -5.02849,3.03994001 10.26872,37.1253543 9.00386,37.9070893 C 110.3281,25.536169 96.369589,7.6026286 93.424241,9.8706035 89.887646,12.593857 101.71826,30.154526 104.77556,40.43513 97.208959,36.427117 83.87945,27.086324 81.863875,29.212525 c -2.428222,2.561491 5.98385,13.79169 9.83869,20.167062 0,0 -12.029318,-3.900354 -13.229457,-2.557205 -1.463654,1.638053 6.776292,14.739364 6.164286,16.382981 -1.317353,-0.210235 -6.302151,-1.598814 -7.652552,0.331478 1.623942,4.905457 3.259568,9.382008 5.764649,14.025721 -3.608755,-0.199833 -3.975582,1.642166 -6.111828,2.721716 1.576991,4.182735 4.190892,7.845468 7.116262,11.231397 3.844215,-0.327867 12.467384,-0.673137 10.087034,0.09719 -0.0042,-0.01116 -3.439111,-1.064059 -14.590706,5.244911 -4.077527,2.306853 4.289575,10.403844 4.820733,10.088484 -5.89663,1.84981 -4.430243,6.99851 2.11494,13.04438 -6.277401,5.97367 -0.73127,10.00863 2.442946,12.78149 -1.631471,6.07102 2.25116,9.17401 6.232687,10.19676 -3.262793,5.34877 0.7646,8.05925 5.404481,10.54805 1.68636,5.6967 4.95054,4.76518 7.37258,5.93237 2.22757,6.60972 5.92337,2.06198 10.72532,4.39409 -20.892971,11.62306 -76.179754,40.99593 -96.518808,53.58753 -4.480623,4.44996 12.590191,8.8952 17.278162,17.32087 5.952741,10.69882 1.002635,24.83595 5.874082,20.91534 10.99828,-8.42223 65.084054,-48.3044 82.816504,-64.2194 0.703,-0.56687 2.20442,1.31745 2.46153,4.20556 -1.11183,5.43283 2.0405,7.57349 3.88064,9.7222 -0.46801,6.84043 1.32568,11.83672 8.14737,10.51545 0.26948,3.89064 -0.35365,8.50783 4.90427,9.11731 0.3752,2.82847 -0.75025,6.97823 5.8325,6.0138 0.86024,6.15949 5.14208,6.97689 10.28301,6.76754 -0.34629,2.24945 -1.4e-4,4.98454 1.30753,5.71839 3.569,2.00287 8.12654,-3.5816 11.78805,-6.3444 -1.21753,2.60231 -1.80014,4.61686 -1.91225,6.93053 -0.11602,2.39369 3.49901,9.56153 6.7515,10.37357 0.94814,0.2367 3.93397,-4.32725 3.93397,-4.32725 2.21479,4.05221 5.67403,10.18939 8.6778,10.47823 0.80617,0.0775 2.49777,-3.5929 3.88045,-5.46953 2.72916,3.87599 6.74328,10.12326 8.69874,10.39678 1.39264,0.1948 2.66521,-6.42316 3.59193,-9.58037 2.86086,3.70271 7.4437,13.38568 9.57584,13.40024 2.61816,0.0179 3.27146,-14.87498 4.42697,-21.6058 3.77027,6.55486 10.15688,20.47243 13.70534,17.93444 4.14196,-2.96249 -0.80303,-17.93812 -0.94255,-26.7193 4.5049,7.16449 12.47505,19.63062 18.90029,15.62422 2.42588,-1.51273 -5.84062,-16.76769 -8.94552,-25.30471 6.39553,4.30493 12.16026,16.0912 21.61521,10.63626 0.75309,-0.43367 -10.1412,-13.7337 -15.22691,-20.62613 3.10044,2.1388 17.93257,12.0319 22.85748,6.31137 0.77485,-0.90001 -4.44225,-2.56532 -7.43271,-4.65357 -7.0947,-4.95428 -15.73596,-11.46043 -14.49432,-12.70381 7.73683,4.80421 20.50787,8.95455 24.5832,6.18332 1.52547,-1.03733 -4.57359,-3.08797 -11.70734,-5.85856 -9.5366,-4.88559 -21.15839,-10.01574 -26.57861,-17.75192 -3.80769,-5.62765 -11.43053,-13.28697 -16.85879,-17.48335 -11.82967,-9.14507 -13.39284,-14.88587 -24.00737,-25.65166 10.08904,-15.03091 12.69615,-21.17358 19.96187,-31.47982 3.2137,-4.55852 10.89519,-6.84746 16.91171,-10.95887 -7.22852,-3.84214 -15.83633,0.79479 -21.62153,-1.21472 z"
       style="display:inline;fill:#303050;fill-opacity:1;fill-rule:evenodd;stroke:#050536;stroke-width:1.39440775px;stroke-linecap:round;stroke-linejoin:round;stroke-opacity:1"
       id="path4599" />
    <path
       style="color:#000000;clip-rule:nonzero;display:inline;overflow:visible;visibility:visible;opacity:1;isolation:auto;mix-blend-mode:normal;color-interpolation:sRGB;color-interpolation-filters:linearRGB;solid-color:#000000;solid-opacity:1;fill:#414177;fill-opacity:1;fill-rule:evenodd;stroke:none;stroke-width:1px;stroke-linecap:round;stroke-linejoin:round;stroke-miterlimit:4;stroke-dasharray:none;stroke-dashoffset:0;stroke-opacity:1;color-rendering:auto;image-rendering:auto;shape-rendering:auto;text-rendering:auto;enable-background:accumulate"
       d="m 106.88762,181.7283 -75.712185,45.51686 -0.0014,0.007 c 3.1953,2.13366 6.321004,4.5728 7.949882,7.50037 1.050714,1.88845 1.748196,3.88298 2.233506,5.86746 l 0.01394,0.001 68.932407,-52.12379 c 1.45897,-3.12531 1.18822,-5.67124 -3.41523,-6.76985 z"
       id="path4737"
       inkscape:connector-curvature="0"
       sodipodi:nodetypes="cccsccccc" />
  </g>
  <g
     inkscape:groupmode="layer"
     id="layer5"
     inkscape:label="Dunkle Färbung"
     style="display:inline"
     transform="translate(0,21)">
    <path
       style="display:inline;fill:none;fill-rule:evenodd;stroke:none;stroke-width:1px;stroke-linecap:round;stroke-linejoin:round;stroke-opacity:1"
       d="m 214.76318,104.04325 0,0"
       id="path4694"
       inkscape:connector-curvature="0" />
    <path
       id="path4639"
       style="display:inline;fill:#050536;fill-opacity:1;fill-rule:evenodd;stroke:none;stroke-width:1px;stroke-linecap:round;stroke-linejoin:round;stroke-opacity:1"
       d="m 230.93476,103.74159 c -5.79262,-0.46627 -11.79092,1.82242 -16.17114,0.30093 -14.03165,-4.87395 -30.30508,10.05419 -35.49892,9.33992 -0.22443,-0.0308 -0.4,-0.13121 -0.75107,-0.5348 -18.61222,5.35896 -29.13865,15.51491 -39.0273,26.37502 -5.05996,5.55705 -4.69901,8.1308 -5.17381,11.06413 -0.33303,1.28718 0.90058,4.68848 0.76206,6.09378 -0.14054,1.42553 -4.27376,4.35939 -8.72616,6.09943 -3.07187,1.2005 -4.93791,1.575 -7.98404,1.36274 l 0,0 c -2.17096,1.20772 -3.89021,2.12273 -6.09701,3.23451 -2.26262,8.194 -4.84044,10.79382 -5.37876,14.65041 4.60344,1.0986 4.87416,3.64567 3.4152,6.77098 6.18967,0.56145 11.70934,2.06168 16.19781,4.14898 0.50161,-0.46 0.81004,-0.74171 1.3127,-1.20054 -0.19638,-2.91724 1.64396,-9.36752 4.23369,-13.74665 3.74883,-4.62278 8.0347,-8.05887 12.21601,-9.07425 0.72861,-0.17693 2.31097,2.154 3.39824,2.4444 3.12649,0.83504 6.7823,0.48919 10.41362,-2.20768 11.58071,-8.60065 27.32574,-20.78048 34.99976,-24.39327 1.46982,-0.69194 4.65598,1.56649 6.4359,3.22631 l -2e-5,3e-5 c 10.08904,-15.03091 12.69615,-21.17359 19.96186,-31.47981 3.21371,-4.55853 10.89519,-6.84748 16.91173,-10.95889 -1.75548,-0.93313 -3.59233,-1.36612 -5.45035,-1.51568 z"
       inkscape:connector-curvature="0"
       sodipodi:nodetypes="scscsccsccccccccssssccscs" />
    <path
       id="path4704"
       style="display:inline;fill:#414177;fill-opacity:1;fill-rule:evenodd;stroke:none;stroke-width:1px;stroke-linecap:round;stroke-linejoin:round;stroke-opacity:1"
       d="m 218.45519,175.09066 c 3.46303,1.71872 6.59226,8.88882 10.38419,13.91287 4.29862,5.69541 10.93491,8.13777 17.38208,12.89943 -2.68772,3.11259 -6.60005,4.76792 -10.49738,6.44111 -4.34776,-6.7263 -5.25746,-10.37618 -15.43343,-7.51778 -12.98711,3.64803 -37.33539,-10.53018 -45.58882,-24.4989 2.65314,-1.10953 5.53227,-2.55493 8.23152,-4.18162 9.31798,7.55536 27.82199,16.10222 35.52184,2.94489 z"
       inkscape:connector-curvature="0"
       sodipodi:nodetypes="csccsccc" />
    <path
       id="path4706"
       style="display:inline;fill:#414177;fill-opacity:1;fill-rule:evenodd;stroke:none;stroke-width:1px;stroke-linecap:round;stroke-linejoin:round;stroke-opacity:1"
       d="m 161.56836,82.228487 c -2.85704,-14.146518 -15.998,-19.034921 -21.08535,-29.38363 -4.98861,2.449333 -8.64812,5.035932 -12.9563,8.383542 7.74566,1.835641 11.67396,5.013231 11.81357,7.181953 -8.35288,12.314838 -16.4364,24.53335 -0.0315,48.076658 1.54192,-1.7275 3.29905,-3.4829 4.99883,-4.94672 1.12357,-0.96759 2.11678,-1.82383 3.28778,-2.73863 -1.75516,-8.14464 -7.22304,-24.474185 13.97306,-26.573173 z"
       inkscape:connector-curvature="0"
       sodipodi:nodetypes="cccccscc" />
  </g>
  <g
     inkscape:groupmode="layer"
     id="layer2"
     inkscape:label="Helle Färbung"
     style="display:inline"
     transform="translate(0,21)">
    <path
       style="display:inline;fill:#ffffff;fill-rule:evenodd;stroke:none;stroke-width:1px;stroke-linecap:round;stroke-linejoin:round;stroke-opacity:1"
       d="m 143.87099,176.70887 c 2.80455,5.21508 21.57305,6.29839 39.63804,-4.91619 8.27125,-5.1347 18.79274,-13.27876 19.79142,-20.05963 l -3.78932,-4.03639 c -1.77995,-1.65981 -4.96611,-3.91824 -6.43593,-3.2263 -7.67402,3.61279 -23.41905,15.79262 -34.99976,24.39327 -3.63132,2.69687 -8.33177,0.77915 -11.45825,-0.0559 -1.15281,2.41201 -4.45162,4.72995 -2.7462,7.90114 z"
       id="path4593"
       inkscape:connector-curvature="0"
       sodipodi:nodetypes="ssccsscs" />
    <path
       style="display:inline;fill:#ffffff;fill-rule:evenodd;stroke:none;stroke-width:1px;stroke-linecap:round;stroke-linejoin:round;stroke-opacity:1"
       d="M 162.0957 124.07227 C 154.37093 124.06522 149.24638 128.28704 144.30664 132.54102 C 133.02856 142.25344 124.47429 158.90537 128.61914 167.41797 C 129.32715 168.87207 132.06266 173.13518 134.54102 173.85547 C 134.33408 172.83082 134.16726 171.84847 134.3125 171.28711 C 134.7873 168.35378 134.42637 165.77971 139.48633 160.22266 C 149.03591 149.73492 159.20337 139.91793 176.65039 134.42969 C 177.24497 134.23085 177.86115 134.03553 178.51367 133.84766 C 176.88685 131.52547 175.48251 129.2622 174.46875 127.09766 C 169.65518 124.9536 165.60696 124.07547 162.0957 124.07227 z "
       transform="translate(0,-21)"
       id="path4597" />
    <path
       style="fill:#ffffff;fill-rule:evenodd;stroke:none;stroke-width:1px;stroke-linecap:round;stroke-linejoin:round;stroke-opacity:1"
       d="m 109.44588,25.919092 c -8.77536,-9.025198 -17.254617,-16.2454807 -5.08259,13.234773 11.21781,5.429963 28.15281,17.476614 29.40121,17.798095 1.73054,-1.351753 3.00509,-2.100201 4.33081,-2.830313 -1.05045,-1.980477 -19.12284,-18.708995 -28.64943,-28.202555 z"
       id="path4272"
       inkscape:connector-curvature="0"
       sodipodi:nodetypes="ccccc" />
    <path
       style="fill:#ffffff;fill-rule:evenodd;stroke:none;stroke-width:1px;stroke-linecap:round;stroke-linejoin:round;stroke-opacity:1"
       d="M 90.869797,48.034918 C 88.278234,39.340799 88.596396,32.679309 95.545339,36.770016 108.1055,44.16393 131.46349,57.18721 131.72957,58.43098 c -2.7088,1.739064 -3.14191,3.901846 -7.8312,2.361737 C 112.6197,57.398156 101.18352,52.240409 90.869797,48.034918 Z"
       id="path4274"
       inkscape:connector-curvature="0"
       sodipodi:nodetypes="csccc" />
    <path
       id="path4285"
       style="fill:#ffffff;fill-rule:evenodd;stroke:none;stroke-width:1px;stroke-linecap:round;stroke-linejoin:round;stroke-opacity:1"
       d="m 124.55714,64.27737 c -12.27886,-5.430772 -23.51867,-9.431635 -35.613201,-13.889543 -5.17052,-1.905793 -6.533107,6.539605 -4.531965,11.47889 23.031766,4.294804 24.235396,3.753272 35.757456,6.401531 0.48502,0.111413 4.83834,-3.791576 4.38771,-3.990878 z"
       inkscape:connector-curvature="0"
       sodipodi:nodetypes="sscss" />
    <path
       id="path4288"
       style="fill:#ffffff;fill-rule:evenodd;stroke:none;stroke-width:1px;stroke-linecap:round;stroke-linejoin:round;stroke-opacity:1"
       d="m 111.1983,77.217446 c -11.252521,-0.89436 -18.047782,-0.03556 -28.536294,0.18236 -2.815072,-5.987879 -0.100676,-12.864583 3.855663,-12.443388 9.78155,1.041358 20.396621,3.83741 31.011981,5.842778 0.5892,0.111274 -5.54528,6.480733 -6.33135,6.41825 z"
       inkscape:connector-curvature="0"
       sodipodi:nodetypes="scsss" />
    <path
       id="path4291"
       style="fill:#ffffff;fill-rule:evenodd;stroke:none;stroke-width:1px;stroke-linecap:round;stroke-linejoin:round;stroke-opacity:1"
       d="m 99.065249,89.582789 c -4.56751,2.742312 -10.237562,1.356312 -15.311324,1.932886 -5.166518,-6.088263 -3.537933,-11.107573 1.9924,-11.503753 7.546172,-0.54057 22.785375,-1.174523 23.172605,-0.378024 -3.03738,4.142103 -7.78681,8.707923 -9.853681,9.948891 z"
       inkscape:connector-curvature="0"
       sodipodi:nodetypes="scscs" />
    <path
       id="path4294"
       style="display:inline;fill:#ffffff;fill-rule:evenodd;stroke:none;stroke-width:1px;stroke-linecap:butt;stroke-linejoin:miter;stroke-opacity:1"
       d="m 118.70757,31.676652 c 7.27084,6.275318 15.66037,14.662457 21.1648,21.42532 1.39655,-0.77331 2.18771,-1.328801 3.90488,-1.896185 -3.52622,-7.437158 -9.44643,-16.613296 -13.77659,-23.718561 -3.08358,-5.374165 -5.94311,-11.216815 -9.64229,-16.713151 -6.34216,-9.4233168 -10.36513,-5.8015184 -7.58805,4.15268 1.87703,6.728005 4.20297,11.584822 5.93725,16.749897"
       inkscape:connector-curvature="0"
       sodipodi:nodetypes="ccccssc" />
    <path
       id="path4297"
       style="display:inline;fill:#ffffff;fill-rule:evenodd;stroke:none;stroke-width:1px;stroke-linecap:butt;stroke-linejoin:miter;stroke-opacity:1"
       d="m 126.53108,2.4440087 c 1.11339,-5.3582042 5.68906,-5.6286914 7.63064,0.2408728 2.27911,7.9707225 4.86784,16.4653985 7.35608,24.7900165 -0.45193,0.560887 8.65178,18.575094 8.3158,21.990319 -1.80692,0.224695 -2.73728,0.40265 -3.63176,0.842822 -3.33352,-3.756046 -15.39485,-24.432531 -15.47231,-24.563593 -1.62364,-7.545645 -3.78746,-14.55829 -4.19845,-23.3004373"
       inkscape:connector-curvature="0"
       sodipodi:nodetypes="ccccccc" />
    <path
       id="path4300"
       style="color:#000000;clip-rule:nonzero;display:inline;overflow:visible;visibility:visible;opacity:1;isolation:auto;mix-blend-mode:normal;color-interpolation:sRGB;color-interpolation-filters:linearRGB;solid-color:#000000;solid-opacity:1;fill:#ffffff;fill-opacity:1;fill-rule:evenodd;stroke:none;stroke-width:1px;stroke-linecap:butt;stroke-linejoin:miter;stroke-miterlimit:4;stroke-dasharray:none;stroke-dashoffset:0;stroke-opacity:1;color-rendering:auto;image-rendering:auto;shape-rendering:auto;text-rendering:auto;enable-background:accumulate"
       d="m 143.02001,-1.54098 c -1.24462,8.3318722 -0.50648,19.137708 0.17902,29.87787 3.97132,7.746377 7.38041,15.092187 8.7405,20.981608 1.03679,0.02705 1.79794,0.133445 2.7751,0.306128 0.0945,-2.517519 0.37623,-6.338545 0.34022,-8.240936 -0.89577,-0.935118 -4.54266,-26.305767 -5.44267,-38.7355512 -2.1096,-3.02673209 -4.6537,-3.60044169 -6.59217,-4.1891188 z"
       inkscape:connector-curvature="0"
       sodipodi:nodetypes="ccccccc" />
    <path
       style="color:#000000;clip-rule:nonzero;display:inline;overflow:visible;visibility:visible;opacity:1;isolation:auto;mix-blend-mode:normal;color-interpolation:sRGB;color-interpolation-filters:linearRGB;solid-color:#000000;solid-opacity:1;fill:#ffffff;fill-opacity:1;fill-rule:evenodd;stroke:none;stroke-width:1px;stroke-linecap:round;stroke-linejoin:round;stroke-miterlimit:4;stroke-dasharray:none;stroke-dashoffset:0;stroke-opacity:1;color-rendering:auto;image-rendering:auto;shape-rendering:auto;text-rendering:auto;enable-background:accumulate"
       d="m 94.940719,94.744872 c -3.598204,-1.361862 -8.596974,1.770508 -9.570871,3.800194 -0.48966,0.758195 2.515414,5.764204 5.004307,4.171774 6.194364,-3.963213 4.566534,-7.9718 4.566564,-7.971968 z"
       id="path4332"
       inkscape:connector-curvature="0"
       sodipodi:nodetypes="ccsc" />
    <path
       id="path4367"
       style="color:#000000;clip-rule:nonzero;display:inline;overflow:visible;visibility:visible;opacity:1;isolation:auto;mix-blend-mode:normal;color-interpolation:sRGB;color-interpolation-filters:linearRGB;solid-color:#000000;solid-opacity:1;fill:#ffffff;fill-opacity:1;fill-rule:evenodd;stroke:none;stroke-width:1px;stroke-linecap:round;stroke-linejoin:round;stroke-miterlimit:4;stroke-dasharray:none;stroke-dashoffset:0;stroke-opacity:1;color-rendering:auto;image-rendering:auto;shape-rendering:auto;text-rendering:auto;enable-background:accumulate"
       d="m 135.60619,173.84052 c -1.00966,-5.39343 -3.36416,-9.80167 -9.25818,-11.35981 4.4225,-1.81469 8.58569,-4.67373 8.72617,-6.09944 7.02192,0.67088 9.79476,7.22674 8.06989,12.57378 -2.54658,0.8741 -5.10305,2.59194 -7.53788,4.88547 z"
       inkscape:connector-curvature="0"
       sodipodi:nodetypes="ccccc" />
    <path
       style="color:#000000;clip-rule:nonzero;display:inline;overflow:visible;visibility:visible;opacity:1;isolation:auto;mix-blend-mode:normal;color-interpolation:sRGB;color-interpolation-filters:linearRGB;solid-color:#000000;solid-opacity:1;fill:#ffffff;fill-opacity:1;fill-rule:evenodd;stroke:none;stroke-width:1px;stroke-linecap:round;stroke-linejoin:round;stroke-miterlimit:4;stroke-dasharray:none;stroke-dashoffset:0;stroke-opacity:1;color-rendering:auto;image-rendering:auto;shape-rendering:auto;text-rendering:auto;enable-background:accumulate"
       d="m 174.84594,229.36023 c -1.67241,-0.63543 -4.65406,0.71844 -7.13797,2.3166 -3.21275,2.06709 -3.14634,3.36891 -0.94658,5.0932 1.92906,1.51213 5.95206,-1.80836 6.49034,-2.28405 0.75591,-0.66798 4.11612,-4.16755 1.59421,-5.12575 z"
       id="path4403"
       inkscape:connector-curvature="0"
       sodipodi:nodetypes="sssss" />
    <path
       style="fill:#ffffff;fill-rule:evenodd;stroke:none;stroke-width:1px;stroke-linecap:butt;stroke-linejoin:miter;stroke-opacity:1"
       d="m 235.72408,208.34407 c 4.19149,4.10746 9.36808,18.95873 14.87416,30.06825 1.55513,3.13774 4.11062,11.5336 2.10714,12.77841 -4.77857,3.07103 -13.10802,-8.03287 -15.59407,-11.73126 -0.94586,-1.40711 -1.01351,-19.22032 -4.1965,-29.78841 -0.13721,-0.45598 2.54053,-1.59035 2.80927,-1.32699 z"
       id="path4410"
       inkscape:connector-curvature="0"
       sodipodi:nodetypes="sscsss" />
    <path
       style="fill:#ffffff;fill-rule:evenodd;stroke:none;stroke-width:1px;stroke-linecap:butt;stroke-linejoin:miter;stroke-opacity:1"
       d="m 222.39975,213.97774 c 2.58755,-0.94316 0.62687,28.06518 0.59951,42.07126 -0.0126,6.54987 -12.91693,2.64689 -12.09289,-1.42344 2.67834,-13.22979 7.26679,-39.10719 8.18431,-39.44163 z"
       id="path4414"
       inkscape:connector-curvature="0"
       sodipodi:nodetypes="sssss" />
    <path
       style="fill:#ffffff;fill-rule:evenodd;stroke:none;stroke-width:1px;stroke-linecap:butt;stroke-linejoin:miter;stroke-opacity:1"
       d="m 214.9116,216.63451 c 1.89717,-0.63942 -4.14106,28.41266 -6.83882,40.90846 -0.77416,1.33605 -7.18263,-0.20891 -10.32253,-2.39377 3.49852,-10.97995 12.4969,-36.97498 13.46031,-37.2869 1.3332,-0.43167 2.56785,-0.84587 3.70104,-1.22779 z"
       id="path4416"
       inkscape:connector-curvature="0"
       sodipodi:nodetypes="sccss" />
    <path
       style="fill:#ffffff;fill-rule:evenodd;stroke:none;stroke-width:1px;stroke-linecap:butt;stroke-linejoin:miter;stroke-opacity:1"
       d="m 203.35017,220.3292 c 1.38179,-0.52887 4.3463,-0.13498 3.89393,1.10493 -3.38335,9.27355 -9.64444,28.86821 -10.16155,29.89735 -1.94846,3.87784 -6.11468,4.91812 -10.62724,0.47939 -1.71969,-1.69155 8.18587,-21.11947 13.83,-30.5611 0.18141,-0.30348 2.40205,-0.66686 3.06486,-0.92057 z"
       id="path4418"
       inkscape:connector-curvature="0"
       sodipodi:nodetypes="ssssss" />
    <path
       style="display:inline;fill:#ffffff;fill-rule:evenodd;stroke:none;stroke-width:1px;stroke-linecap:butt;stroke-linejoin:miter;stroke-opacity:1"
       d="m 227.14514,212.13831 c -1.7446,6.78491 -2.63883,24.00965 -2.63529,36.44482 6.6e-4,2.25519 14.12709,16.59166 13.02968,2.73388 -1.05602,-13.33517 -6.24251,-40.36519 -7.75713,-40.2697 -0.33448,0.0211 -2.56179,0.7975 -2.63726,1.091 z"
       id="path4412"
       inkscape:connector-curvature="0"
       sodipodi:nodetypes="sssss" />
    <path
       id="path4462"
       style="fill:#ffffff;fill-rule:evenodd;stroke:none;stroke-width:1px;stroke-linecap:butt;stroke-linejoin:miter;stroke-opacity:1"
       d="m 175.32449,247.29863 c -0.34823,-0.82722 -0.79872,-2.05261 -0.81796,-3.20444 0.074,-2.00356 0.59892,-4.4005 1.91225,-6.93053 1.94631,-3.74937 3.92063,-9.37643 6.18825,-10.56218 2.20541,-1.15324 5.56603,-1.77859 8.90875,-2.79951 1.45696,-0.44497 5.01726,-0.0195 4.18919,1.82688 -1.67934,3.74443 -8.23134,16.43275 -8.96367,17.90657 -1.56142,3.14228 -5.98002,8.9001 -11.62258,3.25215"
       inkscape:connector-curvature="0"
       sodipodi:nodetypes="ccsssssc" />
    <path
       id="path4468"
       style="display:inline;fill:#ffffff;fill-rule:evenodd;stroke:none;stroke-width:1px;stroke-linecap:round;stroke-linejoin:round;stroke-opacity:1"
       d="m 238.18573,207.08856 c 4.42758,9.70817 7.27434,12.19359 8.57556,22.20615 6.44457,3.89526 9.71815,12.53575 18.85835,9.71036 1.0319,-0.5194 -7.51117,-11.81613 -12.47005,-19.70023 -3.49364,-5.55454 -9.11751,-12.37541 -10.74247,-14.65892 -1.17253,0.96533 -3.19469,1.97269 -4.22136,2.44268 z"
       inkscape:connector-curvature="0"
       sodipodi:nodetypes="cccscc" />
    <path
       style="display:inline;fill:#ffffff;fill-rule:evenodd;stroke:none;stroke-width:1px;stroke-linecap:round;stroke-linejoin:round;stroke-opacity:1"
       d="m 246.22146,201.90296 c 0.98238,-0.68432 1.92953,-1.86967 2.8777,-3.04074 5.4798,3.6856 12.05424,6.74875 17.85674,9.72137 7.13375,2.77059 9.27085,4.19313 7.74539,5.23046 -4.07533,2.77123 -12.88442,-0.75101 -20.62125,-5.55522 -0.13331,0.50253 -7.19155,-5.77819 -7.85858,-6.35587 z"
       id="path4486"
       inkscape:connector-curvature="0"
       sodipodi:nodetypes="cccscc" />
    <path
       id="path4479"
       style="display:inline;fill:#ffffff;fill-rule:evenodd;stroke:none;stroke-width:1px;stroke-linecap:round;stroke-linejoin:round;stroke-opacity:1"
       d="m 246.22146,201.90296 c 0.66703,0.57768 7.72529,6.8584 7.85858,6.35587 -1.24164,1.24338 7.39962,7.74953 14.49432,12.70381 2.99046,2.08825 8.20756,3.75356 7.43271,4.65357 -4.92491,5.72053 -19.75704,-4.17257 -22.85748,-6.31137 -1.80507,-5.78896 -5.31653,-10.80154 -9.12962,-15.67688 0.85363,-0.49634 1.43663,-1.03985 2.20149,-1.725 z"
       inkscape:connector-curvature="0"
       sodipodi:nodetypes="ccssccc" />
    <path
       id="path4499"
       style="fill:#ffffff;fill-rule:evenodd;stroke:none;stroke-width:1px;stroke-linecap:butt;stroke-linejoin:miter;stroke-opacity:1"
       d="m 157.99008,14.34793 c 1.50412,0.755264 3.37382,0.912243 4.67426,3.456179 -0.48326,12.067319 -1.66597,22.568677 -1.3389,36.423262 m 0,0 c -1.01952,-1.587966 -2.81475,-2.978427 -4.34234,-3.799287 -0.0183,-3.277904 -0.90978,-5.836684 -1.92825,-9.044394 l 2.93523,-27.03576"
       inkscape:connector-curvature="0"
       sodipodi:nodetypes="ccccccc" />
  </g>
  <g
     transform="translate(0,21)"
     style="display:inline"
     inkscape:label="Umriss"
     id="g4748"
     inkscape:groupmode="layer">
    <path
       id="path4750"
       style="display:inline;fill:none;fill-opacity:1;fill-rule:evenodd;stroke:#050536;stroke-width:1.39440775px;stroke-linecap:round;stroke-linejoin:round;stroke-opacity:1"
       d="m 214.76318,104.04325 c -14.03165,-4.87395 -30.30508,10.05421 -35.49892,9.33992 -2.08701,-0.28701 -10.24846,-18.058866 -13.33037,-27.880781 -1.61874,-5.158863 2.59536,-11.930023 -1.99487,-20.492607 -2.64693,-4.873748 -3.11416,-12.633125 -2.60256,-22.095743 0.92432,-17.096581 2.74694,-36.8972648 -0.75906,-37.5252893 -1.90634,-0.3414765 -4.6301,21.9999603 -5.52255,35.9949403 -3.33353,-3.983887 -4.87984,-52.436175 -8.92958,-52.037971 -4.60355,0.452662 -4.20902,32.43895 -2.71678,40.275573 -2.18155,0.896657 -12.38901,-41.509776 -14.55016,-40.982589 -7.1815,1.7518321 1.32222,34.866163 2.08036,39.51243 -1.28373,0.758595 -18.17166,-33.354472 -20.83146,-31.7464953 -5.02849,3.03994001 10.26872,37.1253543 9.00386,37.9070893 C 110.3281,25.536169 96.369589,7.6026286 93.424241,9.8706035 89.887646,12.593857 101.71826,30.154526 104.77556,40.43513 97.208959,36.427117 83.87945,27.086324 81.863875,29.212525 c -2.428222,2.561491 5.98385,13.79169 9.83869,20.167062 0,0 -12.029318,-3.900354 -13.229457,-2.557205 -1.463654,1.638053 6.776292,14.739364 6.164286,16.382981 -1.317353,-0.210235 -6.302151,-1.598814 -7.652552,0.331478 1.623942,4.905457 3.259568,9.382008 5.764649,14.025721 -3.608755,-0.199833 -3.975582,1.642166 -6.111828,2.721716 1.576991,4.182735 4.190892,7.845468 7.116262,11.231397 3.844215,-0.327867 12.467384,-0.673137 10.087034,0.09719 -0.0042,-0.01116 -3.439111,-1.064059 -14.590706,5.244911 -4.077527,2.306853 4.289575,10.403844 4.820733,10.088484 -5.89663,1.84981 -4.430243,6.99851 2.11494,13.04438 -6.277401,5.97367 -0.73127,10.00863 2.442946,12.78149 -1.631471,6.07102 2.25116,9.17401 6.232687,10.19676 -3.262793,5.34877 0.7646,8.05925 5.404481,10.54805 1.68636,5.6967 4.95054,4.76518 7.37258,5.93237 2.22757,6.60972 5.92337,2.06198 10.72532,4.39409 -20.892971,11.62306 -76.179754,40.99593 -96.518808,53.58753 -4.480623,4.44996 12.590191,8.8952 17.278162,17.32087 5.952741,10.69882 1.002635,24.83595 5.874082,20.91534 10.99828,-8.42223 65.084054,-48.3044 82.816504,-64.2194 0.703,-0.56687 2.20442,1.31745 2.46153,4.20556 -1.11183,5.43283 2.0405,7.57349 3.88064,9.7222 -0.46801,6.84043 1.32568,11.83672 8.14737,10.51545 0.26948,3.89064 -0.35365,8.50783 4.90427,9.11731 0.3752,2.82847 -0.75025,6.97823 5.8325,6.0138 0.86024,6.15949 5.14208,6.97689 10.28301,6.76754 -0.34629,2.24945 -1.4e-4,4.98454 1.30753,5.71839 3.569,2.00287 8.12654,-3.5816 11.78805,-6.3444 -1.21753,2.60231 -1.80014,4.61686 -1.91225,6.93053 -0.11602,2.39369 3.49901,9.56153 6.7515,10.37357 0.94814,0.2367 3.93397,-4.32725 3.93397,-4.32725 2.21479,4.05221 5.67403,10.18939 8.6778,10.47823 0.80617,0.0775 2.49777,-3.5929 3.88045,-5.46953 2.72916,3.87599 6.74328,10.12326 8.69874,10.39678 1.39264,0.1948 2.66521,-6.42316 3.59193,-9.58037 2.86086,3.70271 7.4437,13.38568 9.57584,13.40024 2.61816,0.0179 3.27146,-14.87498 4.42697,-21.6058 3.77027,6.55486 10.15688,20.47243 13.70534,17.93444 4.14196,-2.96249 -0.80303,-17.93812 -0.94255,-26.7193 4.5049,7.16449 12.47505,19.63062 18.90029,15.62422 2.42588,-1.51273 -5.84062,-16.76769 -8.94552,-25.30471 6.39553,4.30493 12.16026,16.0912 21.61521,10.63626 0.75309,-0.43367 -10.1412,-13.7337 -15.22691,-20.62613 3.10044,2.1388 17.93257,12.0319 22.85748,6.31137 0.77485,-0.90001 -4.44225,-2.56532 -7.43271,-4.65357 -7.0947,-4.95428 -15.73596,-11.46043 -14.49432,-12.70381 7.73683,4.80421 20.50787,8.95455 24.5832,6.18332 1.52547,-1.03733 -4.57359,-3.08797 -11.70734,-5.85856 -9.5366,-4.88559 -21.15839,-10.01574 -26.57861,-17.75192 -3.80769,-5.62765 -11.43053,-13.28697 -16.85879,-17.48335 -11.82967,-9.14507 -13.39284,-14.88587 -24.00737,-25.65166 10.08904,-15.03091 12.69615,-21.17358 19.96187,-31.47982 3.2137,-4.55852 10.89519,-6.84746 16.91171,-10.95887 -7.22852,-3.84214 -15.83633,0.79479 -21.62153,-1.21472 z"
       inkscape:connector-curvature="0"
       sodipodi:nodetypes="csscsscscscscscscsccccccsccccccccsccccccccscsscscscscscscscsscsccscscsc" />
  </g>
  <g
     inkscape:groupmode="layer"
     id="layer4"
     inkscape:label="Schnabel"
     style="display:inline"
     transform="translate(0,21)">
    <path
       id="path4254"
       style="display:inline;fill:#000000;fill-opacity:1;fill-rule:evenodd;stroke:#000000;stroke-width:1.39440775px;stroke-linecap:round;stroke-linejoin:round;stroke-opacity:1"
       d="m 236.3847,105.25796 c -5.60828,-2.98097 -12.61025,-0.84828 -17.91665,-0.68526 -2.69091,7.1855 1.17436,8.28599 3.67111,8.95105 3.75512,-2.54539 9.97486,-5.3474 14.24554,-8.26579 z"
       inkscape:connector-curvature="0"
       sodipodi:nodetypes="cccc" />
  </g>
</svg>
